
<svg xmlns="http://www.w3.org/2000/svg" version="1.1" xmlns:xlink="http://www.w3.org/1999/xlink" preserveAspectRatio="none" x="0px" y="0px" width="1280px" height="720px" viewBox="0 0 1280 720">
<defs>
<g id="Layer0_0_FILL">
<path fill="#000000" stroke="none" d="
M 8.55 18.6
L 9.3 19.3 13.9 14.75 13.15 14 8.55 18.6
M 18.55 7.55
L 19.1 8.1 14.45 12.75 19.1 17.4 17.9 18.55 18.65 19.3 19.9 18.05 15.25 13.4 19.9 8.75 18.65 7.4 18.55 7.55
M 13.15 11.5
L 13.3 11.4 9.3 7.4 9.2 7.55 13.15 11.5 Z"/>

<path fill="#BBBDBF" stroke="none" d="
M 13.3 11.4
L 13.15 11.5 9.2 7.55 8.5 6.85 7.2 8.1 11.85 12.75 7.2 17.4 8.5 18.65 8.55 18.6 13.15 14 13.9 14.75 17.8 18.65 17.9 18.55 19.1 17.4 14.45 12.75 19.1 8.1 18.55 7.55 17.8 6.85 13.3 11.4 Z"/>
</g>
</defs>

<g transform="matrix( 1, 0, 0, 1, 0,0) ">
<use xlink:href="#Layer0_0_FILL"/>
</g>
</svg>
