<?xml version="1.0" encoding="utf-8"?>
<!-- Generator: Adobe Illustrator 16.0.0, SVG Export Plug-In . SVG Version: 6.00 Build 0)  -->
<!DOCTYPE svg PUBLIC "-//W3C//DTD SVG 1.1//EN" "http://www.w3.org/Graphics/SVG/1.1/DTD/svg11.dtd">
<svg version="1.1" id="Layer_1" xmlns="http://www.w3.org/2000/svg" xmlns:xlink="http://www.w3.org/1999/xlink" x="0px" y="0px"
	 width="1280px" height="720px" viewBox="0 0 1280 720" enable-background="new 0 0 1280 720" xml:space="preserve">
<g id="Layer0_0_FILL">
	<g id="XMLID_1_">
		<g>
			<polygon points="14.07,3.36 15.32,4.71 10.67,9.36 15.32,14.01 14.07,15.26 13.32,14.51 14.52,13.36 9.87,8.71 14.52,4.06 
				13.97,3.51 			"/>
			<polygon points="8.57,9.96 9.32,10.71 4.72,15.26 3.97,14.56 			"/>
			<polygon points="8.72,7.36 8.57,7.46 4.62,3.51 4.72,3.36 			"/>
			<polygon fill="#FFFFFF" points="9.87,8.71 14.52,13.36 13.32,14.51 13.22,14.61 9.32,10.71 8.57,9.96 3.97,14.56 3.92,14.61 
				2.62,13.36 7.27,8.71 2.62,4.06 3.92,2.81 4.62,3.51 8.57,7.46 8.72,7.36 13.22,2.81 13.97,3.51 14.52,4.06 			"/>
		</g>
		<g>
		</g>
	</g>
</g>
</svg>
